# xmcd
#
# Track frame offsets: 
#        150
#        13830
#        27721
#        40953
#        54905
#        65452
#        78261
#        88838
#        99942
#        112918
#        123549
#        135050
#        148355
#        160407
#        175110
#        186999
#        200124
#        214767
#        229433
#        245264
#        258222
#        269922
#        284098
#        294248
#        306895
#
# Disc length: 4249 seconds
#
# Revision: 3
# Processed by: cddbd v1.5.2PL0 Copyright (c) Steve Scherf et al.
# Submitted via: ExactAudioCopyFreeDBPlugin 1.0
#
DISCID=7c109719
DTITLE=Various Artist - The Willie Dixon Story: The Session Man
DYEAR=2012
DGENRE=Blues
TTITLE0=Rosetta Howard - Ebony Rhapsody
TTITLE1=Robert Nighthawk - Sweet Black Angel
TTITLE2=Revered Robert Ballinger - How I Got Over
TTITLE3=Junior Wells - Hoodoo Man
TTITLE4=Chuck Berry - Maybellene
TTITLE5=Muddy Waters - Got My Mojo Working
TTITLE6=Bo Diddley - Mona (I Need My Baby)
TTITLE7=Junior Wells - Tomorrow Night
TTITLE8=Jimmy Reed - Meet Me In My Hometown
TTITLE9=Sonny Boy Willianson - Fattering Frogs For Snakes
TTITLE10=Freddie Hall - Can't This Be Mine
TTITLE11=Muddy Waters - Mannis Boy
TTITLE12=John Brim - Be Careful What Do You Do (I Would hate To See Yo
TTITLE12=u Go)
TTITLE13=Junior Wells - 'Bout The Break Of Day
TTITLE14=Buddy Guy - Try To Quit You Baby
TTITLE15=Little Walter - Last Night
TTITLE16=The Moonglows - Sincerely
TTITLE17=Junior Wells - I Could Cry
TTITLE18=Eddie Boyd - 24 Hours
TTITLE19=Reverend Robert Ballinger - This Train
TTITLE20=Sonny Boy Williamson - Mellow Chick Swing
TTITLE21=Washboard Sam - Soap And Water Blues
TTITLE22=Junior Wells - Lovey Dovey Lovey One
TTITLE23=Jimmy Rogers - Walking By Myself
TTITLE24=Chuck Berry - Johnny B. Goode
EXTD=
EXTT0=
EXTT1=
EXTT2=
EXTT3=
EXTT4=
EXTT5=
EXTT6=
EXTT7=
EXTT8=
EXTT9=
EXTT10=
EXTT11=
EXTT12=
EXTT13=
EXTT14=
EXTT15=
EXTT16=
EXTT17=
EXTT18=
EXTT19=
EXTT20=
EXTT21=
EXTT22=
EXTT23=
EXTT24=
PLAYORDER=
